<?xml version="1.0" encoding="utf-8"?>
<!-- Generator: Adobe Illustrator 19.1.0, SVG Export Plug-In . SVG Version: 6.00 Build 0)  -->
<!DOCTYPE svg PUBLIC "-//W3C//DTD SVG 1.1//EN" "http://www.w3.org/Graphics/SVG/1.1/DTD/svg11.dtd">
<svg version="1.1" id="Layer_1" xmlns="http://www.w3.org/2000/svg" xmlns:xlink="http://www.w3.org/1999/xlink" x="0px" y="0px"
	 viewBox="0 0 74.4292 87.6712" style="enable-background:new 0 0 74.4292 87.6712;" xml:space="preserve">
<style type="text/css">
	.st0{fill:#51392D;}
</style>
<g>
	<g>
		<path class="st0" d="M23.718,67.3841c0.4766,0.7566,0.8766,1.5602,1.1952,2.4037l4.8024,12.5082
			c0.4274,1.1187,1.4136,1.9837,2.6796,2.2079c1.2641,0.2221,2.4885-0.2535,3.2753-1.1611l8.7868-10.1105
			c0.59-0.6818,1.2415-1.3001,1.9496-1.8485c-3.8001,0.0132-7.654-0.3092-11.5232-0.9918
			C31.0118,69.7082,27.2809,68.6918,23.718,67.3841z"/>
		<g>
			<path class="st0" d="M60.3837,46.9825c-3.5088-1.8088-6.0343-5.1012-6.9346-8.9088l-3.0172-12.8545
				c-0.5891-2.6636-2.5226-4.9081-5.1587-5.8517l1.6158-9.1735c1.3418-0.3046,2.4376-1.3805,2.6901-2.8226
				c0.3395-1.9165-0.9427-3.7518-2.863-4.0903c-1.9167-0.3385-3.7518,0.9475-4.0903,2.865
				c-0.2535,1.4401,0.4094,2.8253,1.5639,3.5714l-1.6159,9.1745c-2.8044-0.0153-5.3866,1.4324-6.8523,3.7338l-7.2303,11.0476
				c-2.1502,3.2714-5.6476,5.4981-9.565,5.9993c-8.3679,1.0741-14.1488,4.0299-14.909,8.3631
				c-1.3106,7.4613,12.7305,16.1687,31.3773,19.4562c18.6467,3.2877,34.8313-0.0899,36.1419-7.5509
				C72.2963,55.6086,67.876,50.8545,60.3837,46.9825z"/>
		</g>
	</g>
</g>
</svg>
